<svg xmlns="http://www.w3.org/2000/svg" aria-label="Instagram" aria-hidden="true" role="img" viewBox="0 0 20.57 20.57">
  <g>
    <path  d="M12.71,12.71a3.3,3.3,0,0,0,1-2.42,3.43,3.43,0,0,0-3.43-3.43,3.43,3.43,0,0,0-3.43,3.43,3.43,3.43,0,0,0,3.43,3.43A3.3,3.3,0,0,0,12.71,12.71ZM14,6.55a5.09,5.09,0,0,1,1.54,3.74,5.26,5.26,0,0,1-5.28,5.28A5.26,5.26,0,0,1,5,10.29,5.26,5.26,0,0,1,10.29,5,5.09,5.09,0,0,1,14,6.55Zm2.62-2.62a1.23,1.23,0,0,1,0,1.74,1.23,1.23,0,0,1-2.1-.87,1.23,1.23,0,0,1,2.1-.87ZM11.3,1.85H7.85l-1.29,0A10.61,10.61,0,0,0,5.18,2a5.37,5.37,0,0,0-1,.25,3.51,3.51,0,0,0-2,2,5.37,5.37,0,0,0-.25,1,10.61,10.61,0,0,0-.13,1.38q0,.81,0,1.29t0,1.41q0,.93,0,1t0,1q0,.93,0,1.41t0,1.29A10.61,10.61,0,0,0,2,15.4a5.37,5.37,0,0,0,.25,1,3.51,3.51,0,0,0,2,2,5.37,5.37,0,0,0,1,.25,10.61,10.61,0,0,0,1.38.13l1.29,0h4.87l1.29,0a10.61,10.61,0,0,0,1.38-.13,5.37,5.37,0,0,0,1-.25,3.51,3.51,0,0,0,2-2,5.37,5.37,0,0,0,.25-1A10.61,10.61,0,0,0,18.69,14q0-.81,0-1.29t0-1.41q0-.93,0-1t0-1q0-.93,0-1.41t0-1.29a10.61,10.61,0,0,0-.13-1.38,5.37,5.37,0,0,0-.25-1,3.51,3.51,0,0,0-2-2,5.37,5.37,0,0,0-1-.25A10.61,10.61,0,0,0,14,1.88l-1.29,0ZM20.5,6q.07,1.18.07,4.25t-.07,4.25a6.28,6.28,0,0,1-1.66,4.31,6.28,6.28,0,0,1-4.31,1.66q-1.18.07-4.25.07T6,20.5a6.28,6.28,0,0,1-4.31-1.66A6.28,6.28,0,0,1,.07,14.53Q0,13.35,0,10.29T.07,6A6.28,6.28,0,0,1,1.73,1.73,6.28,6.28,0,0,1,6,.07Q7.22,0,10.29,0t4.25.07a6.28,6.28,0,0,1,4.31,1.66A6.28,6.28,0,0,1,20.5,6Z"/>
  </g>
</svg>
