<svg xmlns="http://www.w3.org/2000/svg" aria-label="Email" aria-hidden="true" role="img" viewBox="0 0 24 18.86">
  <g>
    <path d="M24,6.08V16.71a2.15,2.15,0,0,1-2.14,2.14H2.14a2.06,2.06,0,0,1-1.51-.63A2.06,2.06,0,0,1,0,16.71V6.08A7.1,7.1,0,0,0,1.35,7.25Q6.2,10.54,8,11.87q.76.56,1.24.88a7.65,7.65,0,0,0,1.27.64,3.86,3.86,0,0,0,1.47.33h0a3.86,3.86,0,0,0,1.47-.33,7.65,7.65,0,0,0,1.27-.64q.48-.31,1.24-.88,2.28-1.65,6.67-4.62A7.39,7.39,0,0,0,24,6.08Zm0-3.94a3.54,3.54,0,0,1-.66,2,6.37,6.37,0,0,1-1.63,1.65l-6.27,4.35-.57.41-.72.51-.7.44a4.06,4.06,0,0,1-.77.36A2.13,2.13,0,0,1,12,12h0a2.13,2.13,0,0,1-.67-.12,4.06,4.06,0,0,1-.77-.36l-.7-.44-.72-.51-.57-.41L5,7.72,2.3,5.81A6.65,6.65,0,0,1,.74,4.27,3.13,3.13,0,0,1,0,2.44,2.7,2.7,0,0,1,.56.7,1.91,1.91,0,0,1,2.14,0H21.86a2.07,2.07,0,0,1,1.51.63A2.05,2.05,0,0,1,24,2.14Z"/>
  </g>
</svg>
