<svg xmlns="http://www.w3.org/2000/svg" aria-label="Twitter" aria-hidden="true" role="img" viewBox="0 0 27.32 22.18">
  <g>
    <path  d="M27.32,2.63a11.73,11.73,0,0,1-2.81,2.89q0,.24,0,.73a15.9,15.9,0,0,1-.66,4.5,16.25,16.25,0,0,1-2,4.31,16.93,16.93,0,0,1-3.2,3.65,14.24,14.24,0,0,1-4.47,2.53,16.37,16.37,0,0,1-5.6.94A15.55,15.55,0,0,1,0,19.67a12,12,0,0,0,1.35.07,11,11,0,0,0,7-2.39,5.61,5.61,0,0,1-5.23-3.88,7.09,7.09,0,0,0,1.06.09,5.79,5.79,0,0,0,1.47-.19,5.51,5.51,0,0,1-3.22-1.93A5.41,5.41,0,0,1,1.11,7.87V7.8a5.55,5.55,0,0,0,2.53.71,5.59,5.59,0,0,1-1.82-2,5.45,5.45,0,0,1-.68-2.67A5.48,5.48,0,0,1,1.91,1,15.87,15.87,0,0,0,7,5.16a15.6,15.6,0,0,0,6.44,1.72,6.22,6.22,0,0,1-.14-1.28,5.4,5.4,0,0,1,1.64-4A5.61,5.61,0,0,1,23,1.77,11,11,0,0,0,26.55.42,5.44,5.44,0,0,1,24.09,3.5,11.15,11.15,0,0,0,27.32,2.63Z"/>
  </g>
</svg>
