<svg xmlns="http://www.w3.org/2000/svg" aria-label="nintendo switch + tech" aria-hidden="true" role="img" viewBox="0 0 391.08 62.79">
  <g>
    <rect class="logo-bg" width="202.61" height="62.79"/>
    <path class="logo-white-text" d="M18.23,23.75a3.59,3.59,0,1,0,3.59-3.59A3.59,3.59,0,0,0,18.23,23.75ZM40.71,12.28H34.79a.25.25,0,0,0-.25.25V50.23a.28.28,0,0,0,.28.28h5.88a9.8,9.8,0,0,0,9.8-9.8V22.08A9.8,9.8,0,0,0,40.71,12.28Zm1.4,24.9A3.87,3.87,0,1,1,46,33.31,3.87,3.87,0,0,1,42.11,37.17ZM30.44,12.28H22.08a9.8,9.8,0,0,0-9.8,9.8V40.71a9.8,9.8,0,0,0,9.8,9.8h8.36a.28.28,0,0,0,.28-.28V12.56A.28.28,0,0,0,30.44,12.28Zm-2.8,35.15H22.08a6.72,6.72,0,0,1-6.72-6.72V22.08a6.72,6.72,0,0,1,6.72-6.72h5.56Zm63-30.77L96,23.83h2.12V13.1H95.9v7l-5.28-7H88.46V23.83h2.18Zm-22,20.61c-2.93-.48-4.81-1-4.81-2.38,0-1.57,2.1-2.18,4.93-2.18A17.34,17.34,0,0,1,75,34.1l1.44-3.5A22.7,22.7,0,0,0,68.57,29c-4.37,0-9,2.13-9,6.09,0,3.21,2.26,4.84,8.07,5.84,4.09.7,6.34,1.09,6.28,2.85,0,1-.78,2.59-5.4,2.59a14.32,14.32,0,0,1-7.23-1.89L59.35,48a19.85,19.85,0,0,0,8.86,2.14c6.44,0,9.85-2.23,9.85-6.45C78.05,41.22,77.23,38.68,68.67,37.27ZM62.44,16.66l5.33,7.18h2.12V13.1H67.71v7l-5.28-7H60.26V23.83h2.18ZM100.81,44,96.52,29.32H92.93L88.66,44,84.77,29.32H80.36l5.73,20.25H91l3.78-13.34,3.75,13.34h4.89l5.76-20.25h-4.41ZM80.37,13.1H78V23.83h2.39Zm33.79,36.46h4.51V29.32h-4.51Zm67.06-36.82a5.73,5.73,0,1,0,5.71,5.73A5.73,5.73,0,0,0,181.22,12.74Zm0,9.07a3.34,3.34,0,1,1,3.33-3.34A3.34,3.34,0,0,1,181.22,21.81Zm.73,15.49h-9.46v-8h-4.19V49.57h4.19V41.49h9.46v8.08h4.19V29.32h-4.19Zm11,9.49-.7,2-.7-2h-.77v2.77h.5V47.44l.72,2.1v0h.48v0l.72-2.1v2.13h.5V46.79ZM163,13.1h-4.44V23.83H163a5.37,5.37,0,1,0,0-10.73Zm.11,8.48h-2.34V15.36h2.34a3.11,3.11,0,0,1,0,6.22Zm24.76,25.75h.85v2.24h.54V47.32h.83v-.53h-2.23ZM154.82,33.16a6.49,6.49,0,0,1,5.56,3.14l3.29-2.86a10.81,10.81,0,1,0,0,12.05l-3.29-2.86a6.49,6.49,0,0,1-5.56,3.14,6.3,6.3,0,1,1,0-12.61ZM131,21.85h-6.17V19.33h5.7V17.39h-5.7V15.07H131v-2h-8.34V23.83H131ZM123.6,33.62h6.47V49.57h4.36V33.62h6.32v-4.3H123.6ZM114.81,13.1h-9.09v2.28h3.43v8.45h2.31V15.38h3.35Zm34.72,10.73V13.1h-2.18v7l-5.28-7h-2.17V23.83h2.18V16.66l5.33,7.18Z"/>
    <path class="logo-black-text" d="M242.14,34.08H233.3v8.83h-5.5V34.08H219v-5.5h8.83V19.75h5.5v8.83h8.83Zm38.28-20.91H250.66v6.77h11.26V49.5h7.24V19.94h11.26Zm32.1,29.69h-19.9V34.5H311.4V27.86H292.62v-8h19.69V13.17H285.38V49.5h27.14ZM337.27,12.5c-11.18,0-19.07,7.91-19.07,18.84s7.89,18.84,19.07,18.84a18.09,18.09,0,0,0,15.34-7.68l-5.92-4.26a11.12,11.12,0,0,1-9.47,5c-6.41,0-11.44-4.59-11.47-11.88,0-7.06,4.88-11.88,11.47-11.88a10.87,10.87,0,0,1,9.39,5l6.23-3.81C349.88,15.56,344,12.5,337.27,12.5Zm29.08.67h-7.24V49.5h7.24V34.55h17.49V49.5h7.24V13.17h-7.24V27.81H366.35Z"/>
  </g>
</svg>