<svg xmlns="http://www.w3.org/2000/svg" aria-label="nintendo switch + tech" aria-hidden="true" role="img" viewBox="0 0 298.53 113.51">
  <g>
    <rect class="logo-bg" width="113.51" height="113.51"/>
    <path class="logo-white-text" d="M61.33,67.33h7.84A13.07,13.07,0,0,0,82.24,54.27V29.43A13.07,13.07,0,0,0,69.18,16.36H61.29a.33.33,0,0,0-.33.33V67A.37.37,0,0,0,61.33,67.33ZM71,39.24a5.15,5.15,0,1,1-5.15,5.15A5.15,5.15,0,0,1,71,39.24ZM55.48,16.36H44.34A13.07,13.07,0,0,0,31.28,29.43V54.27A13.07,13.07,0,0,0,44.34,67.33H55.48a.37.37,0,0,0,.37-.37V16.74A.37.37,0,0,0,55.48,16.36ZM51.75,63.23H44.34a9,9,0,0,1-9-9V29.43a9,9,0,0,1,9-9h7.41ZM39.21,31.66A4.79,4.79,0,1,0,44,26.86,4.79,4.79,0,0,0,39.21,31.66ZM20.5,77.21l3.16,4.26h1.26V75.1H23.62v4.18L20.49,75.1H19.21v6.36H20.5ZM51.56,75.1H46.17v1.35h2v5h1.37v-5h2Zm-.39,21.63h2.67v-12H51.17Zm-14-19.52,3.16,4.26h1.26V75.1H40.35v4.18L37.22,75.1H35.93v6.36h1.29Zm6,16.22-2.54-8.71H38.58L36.05,93.4l-2.31-8.68H31.13l3.4,12h2.89l2.24-7.91,2.22,7.91h2.9l3.42-12H45.57Zm-19.07-4c-1.74-.28-2.86-.61-2.86-1.41s1.25-1.29,2.92-1.29a10.29,10.29,0,0,1,3.67.83l.85-2.08a13.46,13.46,0,0,0-4.65-.92c-2.59,0-5.35,1.27-5.35,3.61,0,1.9,1.34,2.87,4.78,3.47,2.43.42,3.76.65,3.73,1.69,0,.57-.47,1.54-3.2,1.54a8.49,8.49,0,0,1-4.29-1.12l-1.14,2.05a11.77,11.77,0,0,0,5.25,1.27c3.82,0,5.84-1.32,5.84-3.83C29.76,91.78,29.27,90.27,24.19,89.44ZM31.13,75.1H29.71v6.36h1.42Zm41,6.36V75.1H70.86v4.18L67.73,75.1H66.45v6.36h1.29V77.21l3.16,4.26Zm-11-1.18H57.51V78.8H60.9V77.64H57.51V76.27h3.66V75.1H56.22v6.36h4.95ZM95,95.29h.55v1.44h.35V95.29h.54v-.34H95ZM91,74.89a3.4,3.4,0,1,0,3.39,3.4A3.4,3.4,0,0,0,91,74.89Zm0,5.38a2,2,0,1,1,2-2A2,2,0,0,1,91,80.27ZM98.3,94.94l-.45,1.31-.45-1.31h-.5v1.79h.32V95.36l.47,1.36v0H98v0l.47-1.36v1.37h.32V94.94Zm-6.91-5.49H85.78V84.72H83.29v12h2.48V91.94h5.61v4.79h2.49v-12H91.39ZM56.77,87.27h3.84v9.46H63.2V87.27h3.75V84.72H56.77ZM75.3,87a3.85,3.85,0,0,1,3.3,1.86l2-1.7a6.41,6.41,0,1,0,0,7.15l-2-1.7a3.85,3.85,0,0,1-3.3,1.86,3.74,3.74,0,1,1,0-7.48Zm4.88-11.9H77.54v6.36h2.63a3.18,3.18,0,1,0,0-6.36Zm.06,5H78.85V76.44h1.39a1.84,1.84,0,0,1,0,3.69Z"/>
    <path class="logo-black-text" d="M153,59.54h-8.83v8.83h-5.5V59.54h-8.83V54h8.83V45.21h5.5V54H153Zm34.82-14.18H176.6V74.92h-7.24V45.37H158.1V38.59h29.76ZM220,74.92H192.82V38.59h26.93v6.64H200.06v8h18.79v6.64H200.06v8.36H220Zm40.32-28.86-6.23,3.81a10.87,10.87,0,0,0-9.39-5c-6.59,0-11.47,4.83-11.47,11.88,0,7.29,5.06,11.88,11.47,11.88a11.12,11.12,0,0,0,9.47-5L260,67.91a18.09,18.09,0,0,1-15.34,7.68c-11.18,0-19.07-7.91-19.07-18.84s7.89-18.84,19.07-18.84C251.41,37.92,257.32,41,260.28,46.07Zm13.52,7.16h17.49V38.59h7.24V74.92h-7.24V60H273.8V74.92h-7.24V38.59h7.24Z"/>
  </g>
</svg>